# xmcd CD database file
#
# Track frame offsets:
#	150
#	22800
#	43540
#	57207
#	77735
#	97292
#	116922
#	137870
#	155712
#	177097
#
# Disc length: 2536 seconds
#
# Revision: 0
# Processed by: cddbd v1.4PL0 Copyright (c) Steve Scherf et al.
# Submitted via: CDex 1.50Beta7
#
DISCID=8409e60a
DTITLE=Ilan Chester - Un mundo mejor
DYEAR=1992
DGENRE=Blues
TTITLE0=Un mundo mejor
TTITLE1=Todo mi corazón
TTITLE2=Ojos verdes
TTITLE3=Canción que no se olvida
TTITLE4=Amor de cerca (dime si lo notas)
TTITLE5=El castellano y el tambor
TTITLE6=Piel y seda
TTITLE7=Dama de la noche (dime si lo notas)
TTITLE8=La pequeña Lulú
TTITLE9=De corazón
EXTD=YEAR: 1992
EXTT0=
EXTT1=
EXTT2=
EXTT3=
EXTT4=
EXTT5=
EXTT6=
EXTT7=
EXTT8=
EXTT9=
PLAYORDER=
